%TF.GenerationSoftware,KiCad,Pcbnew,(5.1.9)-1*%
%TF.CreationDate,2021-04-04T21:48:06-07:00*%
%TF.ProjectId,rc-256page,72632d32-3536-4706-9167-652e6b696361,rev?*%
%TF.SameCoordinates,PX9157080PY9071968*%
%TF.FileFunction,Legend,Bot*%
%TF.FilePolarity,Positive*%
%FSLAX46Y46*%
G04 Gerber Fmt 4.6, Leading zero omitted, Abs format (unit mm)*
G04 Created by KiCad (PCBNEW (5.1.9)-1) date 2021-04-04 21:48:06*
%MOMM*%
%LPD*%
G01*
G04 APERTURE LIST*
%ADD10C,0.300000*%
G04 APERTURE END LIST*
D10*
X81431428Y46641629D02*
X82288571Y46641629D01*
X81860000Y46641629D02*
X81860000Y48141629D01*
X82002857Y47927343D01*
X82145714Y47784486D01*
X82288571Y47713058D01*
X80860000Y47998772D02*
X80788571Y48070200D01*
X80645714Y48141629D01*
X80288571Y48141629D01*
X80145714Y48070200D01*
X80074285Y47998772D01*
X80002857Y47855915D01*
X80002857Y47713058D01*
X80074285Y47498772D01*
X80931428Y46641629D01*
X80002857Y46641629D01*
X79145714Y47498772D02*
X79288571Y47570200D01*
X79360000Y47641629D01*
X79431428Y47784486D01*
X79431428Y47855915D01*
X79360000Y47998772D01*
X79288571Y48070200D01*
X79145714Y48141629D01*
X78860000Y48141629D01*
X78717142Y48070200D01*
X78645714Y47998772D01*
X78574285Y47855915D01*
X78574285Y47784486D01*
X78645714Y47641629D01*
X78717142Y47570200D01*
X78860000Y47498772D01*
X79145714Y47498772D01*
X79288571Y47427343D01*
X79360000Y47355915D01*
X79431428Y47213058D01*
X79431428Y46927343D01*
X79360000Y46784486D01*
X79288571Y46713058D01*
X79145714Y46641629D01*
X78860000Y46641629D01*
X78717142Y46713058D01*
X78645714Y46784486D01*
X78574285Y46927343D01*
X78574285Y47213058D01*
X78645714Y47355915D01*
X78717142Y47427343D01*
X78860000Y47498772D01*
X77931428Y46641629D02*
X77931428Y48141629D01*
X77074285Y46641629D02*
X77717142Y47498772D01*
X77074285Y48141629D02*
X77931428Y47284486D01*
X76431428Y47213058D02*
X75288571Y47213058D01*
X75860000Y46641629D02*
X75860000Y47784486D01*
X73788571Y46641629D02*
X74645714Y46641629D01*
X74217142Y46641629D02*
X74217142Y48141629D01*
X74360000Y47927343D01*
X74502857Y47784486D01*
X74645714Y47713058D01*
X73217142Y47998772D02*
X73145714Y48070200D01*
X73002857Y48141629D01*
X72645714Y48141629D01*
X72502857Y48070200D01*
X72431428Y47998772D01*
X72360000Y47855915D01*
X72360000Y47713058D01*
X72431428Y47498772D01*
X73288571Y46641629D01*
X72360000Y46641629D01*
X71502857Y47498772D02*
X71645714Y47570200D01*
X71717142Y47641629D01*
X71788571Y47784486D01*
X71788571Y47855915D01*
X71717142Y47998772D01*
X71645714Y48070200D01*
X71502857Y48141629D01*
X71217142Y48141629D01*
X71074285Y48070200D01*
X71002857Y47998772D01*
X70931428Y47855915D01*
X70931428Y47784486D01*
X71002857Y47641629D01*
X71074285Y47570200D01*
X71217142Y47498772D01*
X71502857Y47498772D01*
X71645714Y47427343D01*
X71717142Y47355915D01*
X71788571Y47213058D01*
X71788571Y46927343D01*
X71717142Y46784486D01*
X71645714Y46713058D01*
X71502857Y46641629D01*
X71217142Y46641629D01*
X71074285Y46713058D01*
X71002857Y46784486D01*
X70931428Y46927343D01*
X70931428Y47213058D01*
X71002857Y47355915D01*
X71074285Y47427343D01*
X71217142Y47498772D01*
X70288571Y46641629D02*
X70288571Y48141629D01*
X69431428Y46641629D02*
X70074285Y47498772D01*
X69431428Y48141629D02*
X70288571Y47284486D01*
X67645714Y46641629D02*
X67645714Y48141629D01*
X67074285Y48141629D01*
X66931428Y48070200D01*
X66860000Y47998772D01*
X66788571Y47855915D01*
X66788571Y47641629D01*
X66860000Y47498772D01*
X66931428Y47427343D01*
X67074285Y47355915D01*
X67645714Y47355915D01*
X65502857Y46641629D02*
X65502857Y47427343D01*
X65574285Y47570200D01*
X65717142Y47641629D01*
X66002857Y47641629D01*
X66145714Y47570200D01*
X65502857Y46713058D02*
X65645714Y46641629D01*
X66002857Y46641629D01*
X66145714Y46713058D01*
X66217142Y46855915D01*
X66217142Y46998772D01*
X66145714Y47141629D01*
X66002857Y47213058D01*
X65645714Y47213058D01*
X65502857Y47284486D01*
X64145714Y47641629D02*
X64145714Y46427343D01*
X64217142Y46284486D01*
X64288571Y46213058D01*
X64431428Y46141629D01*
X64645714Y46141629D01*
X64788571Y46213058D01*
X64145714Y46713058D02*
X64288571Y46641629D01*
X64574285Y46641629D01*
X64717142Y46713058D01*
X64788571Y46784486D01*
X64860000Y46927343D01*
X64860000Y47355915D01*
X64788571Y47498772D01*
X64717142Y47570200D01*
X64574285Y47641629D01*
X64288571Y47641629D01*
X64145714Y47570200D01*
X63431428Y46641629D02*
X63431428Y47641629D01*
X63431428Y48141629D02*
X63502857Y48070200D01*
X63431428Y47998772D01*
X63360000Y48070200D01*
X63431428Y48141629D01*
X63431428Y47998772D01*
X62717142Y47641629D02*
X62717142Y46641629D01*
X62717142Y47498772D02*
X62645714Y47570200D01*
X62502857Y47641629D01*
X62288571Y47641629D01*
X62145714Y47570200D01*
X62074285Y47427343D01*
X62074285Y46641629D01*
X60717142Y47641629D02*
X60717142Y46427343D01*
X60788571Y46284486D01*
X60860000Y46213058D01*
X61002857Y46141629D01*
X61217142Y46141629D01*
X61360000Y46213058D01*
X60717142Y46713058D02*
X60860000Y46641629D01*
X61145714Y46641629D01*
X61288571Y46713058D01*
X61360000Y46784486D01*
X61431428Y46927343D01*
X61431428Y47355915D01*
X61360000Y47498772D01*
X61288571Y47570200D01*
X61145714Y47641629D01*
X60860000Y47641629D01*
X60717142Y47570200D01*
X58002857Y46641629D02*
X58502857Y47355915D01*
X58860000Y46641629D02*
X58860000Y48141629D01*
X58288571Y48141629D01*
X58145714Y48070200D01*
X58074285Y47998772D01*
X58002857Y47855915D01*
X58002857Y47641629D01*
X58074285Y47498772D01*
X58145714Y47427343D01*
X58288571Y47355915D01*
X58860000Y47355915D01*
X57431428Y47070200D02*
X56717142Y47070200D01*
X57574285Y46641629D02*
X57074285Y48141629D01*
X56574285Y46641629D01*
X56074285Y46641629D02*
X56074285Y48141629D01*
X55574285Y47070200D01*
X55074285Y48141629D01*
X55074285Y46641629D01*
X53288571Y48213058D02*
X54574285Y46284486D01*
X51931428Y46641629D02*
X52431428Y47355915D01*
X52788571Y46641629D02*
X52788571Y48141629D01*
X52217142Y48141629D01*
X52074285Y48070200D01*
X52002857Y47998772D01*
X51931428Y47855915D01*
X51931428Y47641629D01*
X52002857Y47498772D01*
X52074285Y47427343D01*
X52217142Y47355915D01*
X52788571Y47355915D01*
X51002857Y48141629D02*
X50717142Y48141629D01*
X50574285Y48070200D01*
X50431428Y47927343D01*
X50360000Y47641629D01*
X50360000Y47141629D01*
X50431428Y46855915D01*
X50574285Y46713058D01*
X50717142Y46641629D01*
X51002857Y46641629D01*
X51145714Y46713058D01*
X51288571Y46855915D01*
X51360000Y47141629D01*
X51360000Y47641629D01*
X51288571Y47927343D01*
X51145714Y48070200D01*
X51002857Y48141629D01*
X49717142Y46641629D02*
X49717142Y48141629D01*
X49217142Y47070200D01*
X48717142Y48141629D01*
X48717142Y46641629D01*
X46002857Y46784486D02*
X46074285Y46713058D01*
X46288571Y46641629D01*
X46431428Y46641629D01*
X46645714Y46713058D01*
X46788571Y46855915D01*
X46860000Y46998772D01*
X46931428Y47284486D01*
X46931428Y47498772D01*
X46860000Y47784486D01*
X46788571Y47927343D01*
X46645714Y48070200D01*
X46431428Y48141629D01*
X46288571Y48141629D01*
X46074285Y48070200D01*
X46002857Y47998772D01*
X44717142Y46641629D02*
X44717142Y47427343D01*
X44788571Y47570200D01*
X44931428Y47641629D01*
X45217142Y47641629D01*
X45360000Y47570200D01*
X44717142Y46713058D02*
X44860000Y46641629D01*
X45217142Y46641629D01*
X45360000Y46713058D01*
X45431428Y46855915D01*
X45431428Y46998772D01*
X45360000Y47141629D01*
X45217142Y47213058D01*
X44860000Y47213058D01*
X44717142Y47284486D01*
X44002857Y46641629D02*
X44002857Y47641629D01*
X44002857Y47355915D02*
X43931428Y47498772D01*
X43860000Y47570200D01*
X43717142Y47641629D01*
X43574285Y47641629D01*
X42431428Y46641629D02*
X42431428Y48141629D01*
X42431428Y46713058D02*
X42574285Y46641629D01*
X42860000Y46641629D01*
X43002857Y46713058D01*
X43074285Y46784486D01*
X43145714Y46927343D01*
X43145714Y47355915D01*
X43074285Y47498772D01*
X43002857Y47570200D01*
X42860000Y47641629D01*
X42574285Y47641629D01*
X42431428Y47570200D01*
X39431428Y46641629D02*
X39431428Y48141629D01*
X38860000Y48141629D01*
X38717142Y48070200D01*
X38645714Y47998772D01*
X38574285Y47855915D01*
X38574285Y47641629D01*
X38645714Y47498772D01*
X38717142Y47427343D01*
X38860000Y47355915D01*
X39431428Y47355915D01*
X37931428Y46641629D02*
X37931428Y48141629D01*
X37574285Y48141629D01*
X37360000Y48070200D01*
X37217142Y47927343D01*
X37145714Y47784486D01*
X37074285Y47498772D01*
X37074285Y47284486D01*
X37145714Y46998772D01*
X37217142Y46855915D01*
X37360000Y46713058D01*
X37574285Y46641629D01*
X37931428Y46641629D01*
X35645714Y46641629D02*
X36502857Y46641629D01*
X36074285Y46641629D02*
X36074285Y48141629D01*
X36217142Y47927343D01*
X36360000Y47784486D01*
X36502857Y47713058D01*
X34217142Y46641629D02*
X35074285Y46641629D01*
X34645714Y46641629D02*
X34645714Y48141629D01*
X34788571Y47927343D01*
X34931428Y47784486D01*
X35074285Y47713058D01*
X33288571Y48141629D02*
X33145714Y48141629D01*
X33002857Y48070200D01*
X32931428Y47998772D01*
X32860000Y47855915D01*
X32788571Y47570200D01*
X32788571Y47213058D01*
X32860000Y46927343D01*
X32931428Y46784486D01*
X33002857Y46713058D01*
X33145714Y46641629D01*
X33288571Y46641629D01*
X33431428Y46713058D01*
X33502857Y46784486D01*
X33574285Y46927343D01*
X33645714Y47213058D01*
X33645714Y47570200D01*
X33574285Y47855915D01*
X33502857Y47998772D01*
X33431428Y48070200D01*
X33288571Y48141629D01*
X31145714Y47641629D02*
X30788571Y46641629D01*
X30431428Y47641629D01*
X29074285Y46641629D02*
X29931428Y46641629D01*
X29502857Y46641629D02*
X29502857Y48141629D01*
X29645714Y47927343D01*
X29788571Y47784486D01*
X29931428Y47713058D01*
X28431428Y46784486D02*
X28360000Y46713058D01*
X28431428Y46641629D01*
X28502857Y46713058D01*
X28431428Y46784486D01*
X28431428Y46641629D01*
X27431428Y48141629D02*
X27288571Y48141629D01*
X27145714Y48070200D01*
X27074285Y47998772D01*
X27002857Y47855915D01*
X26931428Y47570200D01*
X26931428Y47213058D01*
X27002857Y46927343D01*
X27074285Y46784486D01*
X27145714Y46713058D01*
X27288571Y46641629D01*
X27431428Y46641629D01*
X27574285Y46713058D01*
X27645714Y46784486D01*
X27717142Y46927343D01*
X27788571Y47213058D01*
X27788571Y47570200D01*
X27717142Y47855915D01*
X27645714Y47998772D01*
X27574285Y48070200D01*
X27431428Y48141629D01*
M02*
